<?xml version="1.0" encoding="utf-8"?>
<!-- Generator: Adobe Illustrator 26.5.0, SVG Export Plug-In . SVG Version: 6.00 Build 0)  -->
<svg version="1.1" id="Layer_1" xmlns="http://www.w3.org/2000/svg" xmlns:xlink="http://www.w3.org/1999/xlink" x="0px" y="0px"
	 viewBox="0 0 249.45 155.91" style="enable-background:new 0 0 249.45 155.91;" xml:space="preserve">
<style type="text/css">
	.st0{fill:#0B0B0B;}
	.st1{fill:#0A0A0A;}
	.st2{fill:#080808;}
	.st3{fill:#0C0C0C;}
	.st4{fill:#0E0E0E;}
	.st5{fill:#090909;}
	.st6{fill:#54BB3F;}
</style>
<g>
	<path class="st0" d="M200.06,69.76c-0.93-0.1-1.73-0.2-2.79-0.32c1.33-1.05,8.73-1.12,10.69-0.02c-1.29,0.12-2.1,0.2-3.01,0.28
		c0,2.58,0,5.17,0,7.88c2.66,0,5.28,0,8.05,0c0-2.58,0-5.15,0-7.85c-0.8-0.09-1.65-0.18-2.49-0.28c0.03-0.2,0.05-0.4,0.08-0.6
		c3.28,0,6.57,0,9.85,0c0.02,0.2,0.03,0.39,0.05,0.59c-0.8,0.09-1.6,0.17-2.5,0.27c0,5.81,0,11.62,0,17.47
		c0.8,0.17,1.58,0.34,2.35,0.5c-0.02,0.14-0.05,0.28-0.07,0.42c-3.22,0-6.44,0-9.66,0c-0.03-0.17-0.05-0.34-0.08-0.51
		c0.76-0.11,1.53-0.22,2.47-0.36c0-2.72,0-5.5,0-8.44c-2.61,0-5.27,0-8.05,0c0,2.8,0,5.59,0,8.4c0.81,0.17,1.58,0.33,2.36,0.49
		c-0.03,0.14-0.05,0.27-0.08,0.41c-3.22,0-6.45,0-9.67,0c-0.03-0.16-0.05-0.32-0.08-0.49c0.83-0.13,1.66-0.26,2.58-0.4
		C200.06,81.43,200.06,75.68,200.06,69.76z"/>
	<path class="st1" d="M24.46,87.52c0.81-0.07,1.62-0.14,2.59-0.23c0-2.79,0-5.63,0-8.56c-2.66,0-5.28,0-8.05,0c0,2.84,0,5.62,0,8.41
		c0.79,0.2,1.56,0.39,2.34,0.59c-0.03,0.12-0.06,0.23-0.08,0.35c-3.23,0-6.46,0-9.69,0c-0.02-0.17-0.04-0.35-0.07-0.52
		c0.78-0.09,1.57-0.18,2.5-0.29c0-5.73,0-11.53,0-17.36c-0.87-0.2-1.8-0.42-2.73-0.63c0.04-0.16,0.07-0.32,0.11-0.47
		c3.35,0,6.71,0,10.06,0c0.03,0.19,0.05,0.37,0.08,0.56c-0.82,0.14-1.64,0.28-2.57,0.44c0,2.5,0,5.03,0,7.72c2.69,0,5.35,0,8.14,0
		c0-2.57,0-5.16,0-7.82c-0.87-0.1-1.73-0.2-2.59-0.29c0.01-0.19,0.03-0.38,0.04-0.57c3.32,0,6.63,0,9.95,0
		c0.02,0.17,0.05,0.35,0.07,0.52c-0.84,0.14-1.68,0.28-2.62,0.44c0,5.79,0,11.59,0,17.37c0.84,0.17,1.57,0.33,2.3,0.48
		c-0.02,0.13-0.03,0.27-0.05,0.4c-3.22,0-6.45,0-9.67,0C24.5,87.89,24.48,87.7,24.46,87.52z"/>
	<path class="st2" d="M57.07,69.72c-0.85-0.1-1.66-0.19-2.83-0.33c0.47-0.44,0.64-0.73,0.8-0.73c3.73,0.03,7.48-0.16,11.18,0.2
		c5.29,0.52,8.59,4.2,8.73,9.17c0.15,5.18-2.85,9.26-8.09,9.92c-4.02,0.51-8.15,0.1-12.3-0.37c0.78-0.1,1.56-0.2,2.51-0.32
		C57.07,81.51,57.07,75.72,57.07,69.72z M61.9,69.69c0,3.05,0,5.98,0,8.92c0,2.91,0,5.83,0,8.72c5.41,0.17,6.88-0.92,7.6-5.7
		c0.26-1.71,0.27-3.49,0.14-5.21C69.19,70.43,67.2,69.19,61.9,69.69z"/>
	<path class="st2" d="M91.71,80.28c-1.06-0.11-1.93-0.2-2.81-0.28c0.01-0.17,0.03-0.34,0.04-0.51c3.13,0,6.26,0,9.39,0
		c0.02,0.15,0.03,0.29,0.05,0.44c-0.65,0.13-1.31,0.26-2.13,0.42c0,2.6,0,5.19,0,7.39c-2.32,0.21-4.45,0.25-6.52,0.62
		c-4.42,0.77-8.85-0.81-10.96-4.08c-2.14-3.31-2.01-8.79,0.27-12.04c2.25-3.2,6.72-4.59,11.14-3.62c1.59,0.35,3.27,0.36,5.06,0.54
		c0,1.98,0,4.21,0,6.43c-0.16,0.06-0.32,0.13-0.49,0.19c-0.3-0.62-0.66-1.21-0.89-1.85c-1.07-2.99-2.67-4.39-5.3-4.54
		c-2.44-0.15-4.49,1.12-5.31,3.57c-1.23,3.66-1.22,7.41-0.07,11.09c0.72,2.3,2.38,3.4,4.71,3.45c3,0.06,3.82-0.71,3.81-3.64
		C91.71,82.64,91.71,81.45,91.71,80.28z"/>
	<path class="st3" d="M223.59,81.21c0.29,0.54,0.7,1.05,0.84,1.62c0.78,3.35,2.88,5.13,6.02,4.61c1.07-0.18,2.56-1.12,2.83-2.01
		c0.31-1.04-0.17-2.7-0.93-3.56c-0.98-1.1-2.57-1.67-3.9-2.48c-1.21-0.74-2.54-1.34-3.59-2.26c-2.83-2.5-2.23-6.27,1.21-7.92
		c2.65-1.27,5.4-0.98,8.17-0.36c0.89,0.2,1.86,0.03,3.12,0.03c0,1.32,0.04,2.96-0.03,4.59c-0.01,0.33-0.46,0.65-0.7,0.97
		c-0.24-0.33-0.61-0.63-0.71-1c-0.8-2.85-2.47-4.38-4.94-4.05c-1,0.14-2.42,0.84-2.7,1.61c-0.33,0.92,0.18,2.28,0.67,3.29
		c0.31,0.65,1.18,1.07,1.87,1.49c1.04,0.63,2.14,1.17,3.21,1.73c2.39,1.25,4.42,2.81,4.11,5.85c-0.27,2.66-2.34,4.41-5.81,5.05
		c-2.84,0.52-5.54,0.04-8.03-1.27c-0.34,0.41-0.65,0.78-1.28,1.55c0-2.69,0-4.9,0-7.11C223.22,81.47,223.4,81.34,223.59,81.21z"/>
	<path class="st0" d="M35.78,87.54c0.81-0.09,1.62-0.18,2.54-0.29c0-5.82,0-11.62,0-17.53c-0.87-0.09-1.73-0.17-2.58-0.25
		c0.01-0.2,0.03-0.4,0.04-0.61c5.46,0,10.93,0,16.55,0c0,1.95,0,3.98,0,6c-0.11,0.07-0.22,0.13-0.34,0.2
		c-0.96-1.61-1.56-3.75-2.97-4.68c-1.46-0.96-3.72-0.73-5.79-1.04c0,2.94,0,5.52,0,8.46c2.08,0,4.16,0,6.23,0c0,0.21,0,0.43,0,0.64
		c-2.02,0-4.03,0-6.19,0c0,3.06,0,5.85,0,9.16c1.91-0.3,4.18-0.1,5.69-1.06c1.43-0.91,2.04-3.05,3.32-5.15c0,2.6,0,4.64,0,6.73
		c-5.52,0-10.98,0-16.44,0C35.82,87.93,35.8,87.73,35.78,87.54z"/>
	<path class="st4" d="M116.17,88.15c-5.57,0-10.98,0-16.39,0c-0.03-0.16-0.06-0.32-0.09-0.48c0.81-0.14,1.61-0.29,2.55-0.45
		c0-5.74,0-11.55,0-17.48c-0.82-0.1-1.67-0.19-2.52-0.29c0.01-0.2,0.02-0.39,0.04-0.59c5.41,0,10.83,0,16.45,0c0,1.93,0,3.99,0,6.7
		c-1.24-2.09-1.82-4.19-3.21-5.1c-1.46-0.96-3.69-0.78-5.79-1.13c0,2.97,0,5.54,0,8.4c2.04,0,4.09,0,6.14,0
		c0.01,0.23,0.03,0.46,0.04,0.7c-2.03,0-4.06,0-6.2,0c0,3.19,0,5.97,0,9.23c2-0.32,4.24-0.12,5.68-1.07
		c1.42-0.95,2.03-3.07,3.3-5.19C116.17,83.94,116.17,85.99,116.17,88.15z"/>
	<path class="st5" d="M138.98,87.83c0-1.6-0.03-3.53,0.03-5.46c0.01-0.33,0.42-0.64,0.64-0.97c0.24,0.31,0.61,0.58,0.72,0.93
		c1.28,4.15,2.95,5.68,6.23,5.1c1.06-0.19,2.46-1.17,2.79-2.1c0.33-0.94-0.13-2.61-0.86-3.36c-1.13-1.16-2.8-1.82-4.24-2.69
		c-1.04-0.63-2.16-1.15-3.1-1.91c-3.22-2.61-2.64-7.06,1.35-8.27c2.33-0.71,5.03-0.24,7.56-0.26c0.98-0.01,1.95,0.1,3.17,0.17
		c0,1.45,0,3.35,0,5.24c-0.15,0.1-0.3,0.2-0.44,0.3c-0.32-0.5-0.76-0.96-0.93-1.51c-0.72-2.31-2.07-3.56-4.25-3.7
		c-1.43-0.09-3.04,0.15-3.33,1.64c-0.21,1.11,0.31,2.57,0.98,3.56c0.59,0.87,1.82,1.35,2.8,1.93c1.16,0.69,2.44,1.2,3.54,1.96
		c3.84,2.63,3.4,7.4-0.88,9.28c-2.93,1.29-5.93,1.12-8.94,0.13C141.1,87.63,140.23,87.83,138.98,87.83z"/>
	<path class="st0" d="M196.13,82.04c0,2.05,0,4.1,0,6.72c-0.68-0.73-1.06-1.13-1.44-1.54c-6.62,2.43-11.81,1.5-14.86-2.72
		c-2.69-3.72-2.52-9,0.4-12.56c3.11-3.8,8.53-4.68,14.28-2.28c0.3-0.37,0.61-0.75,1.31-1.61c0,2.6,0,4.66,0,6.71
		c-0.1,0.11-0.2,0.22-0.3,0.33c-0.41-0.61-0.94-1.17-1.21-1.84c-1.37-3.33-4.22-4.74-7.3-3.54c-2.05,0.8-3.16,2.51-3.33,4.49
		c-0.26,2.91-0.3,5.89,0,8.79c0.28,2.65,2.08,4.24,4.25,4.48c3.04,0.35,4.98-0.69,6.29-3.36c0.39-0.8,0.79-1.59,1.18-2.39
		C195.65,81.83,195.89,81.94,196.13,82.04z"/>
	<path class="st5" d="M176.91,88.06c-2.91,0-5.83,0-8.74,0c-0.02-0.17-0.04-0.33-0.05-0.5c0.67-0.09,1.34-0.17,2.29-0.29
		c-0.8-2.07-1.59-4.09-2.33-6.02c-0.2-0.06-0.26-0.1-0.33-0.1c-7.96,0.15-5.49-1.71-8.48,6.12c0.8,0.1,1.57,0.21,2.35,0.31
		c-0.01,0.16-0.03,0.32-0.04,0.48c-1.97,0-3.94,0-5.91,0c3.41-0.46,3.01-3.57,3.91-5.65c1.75-4.05,3.21-8.23,4.9-12.31
		c0.26-0.63,1.12-1.39,1.71-1.4c0.61-0.01,1.53,0.7,1.8,1.31c2.01,4.6,3.87,9.27,5.84,13.89C174.51,85.48,174.63,87.55,176.91,88.06
		z M167.59,80.11c-0.98-2.52-1.87-4.78-2.9-7.42c-1.02,2.71-1.88,5.01-2.78,7.42C163.86,80.11,165.54,80.11,167.59,80.11z"/>
	<path class="st6" d="M131.94,84.24c0.35-2.69-1.44-4.18-3.16-5.66c-1.22-1.05-2.61-1.92-3.86-2.95c-3.5-2.87-3.27-5.82,0.76-8.48
		c0.64,3.69,3.81,5.5,5.93,8.11c1.08,1.32,2.12,2.8,2.67,4.38C134.97,81.62,134.02,83.16,131.94,84.24z"/>
	<path class="st6" d="M125.11,77.61c1.66,1.88,3.23,3.6,4.74,5.37c1.66,1.94,1.55,3.63-0.38,5c-0.2-2.76-2.5-3.78-4.3-5.21
		C122.89,80.95,122.93,79.25,125.11,77.61z"/>
</g>
</svg>
